<svg width="24" height="24" viewBox="0 0 24 24" fill="none" xmlns="http://www.w3.org/2000/svg">
<rect width="24" height="24" fill="#FFC90B"/>
<path d="M11.3684 1.47797C11.0128 1.38267 10.6472 1.59373 10.5519 1.94937C10.4566 2.30501 10.6677 2.67057 11.0233 2.76587L7.05479 17.5767C6.57831 19.3549 7.63359 21.1827 9.41181 21.6592C11.19 22.1357 13.0178 21.0804 13.4943 19.3022L15.0817 13.3778L12.5059 12.6877C12.1503 12.5924 11.9392 12.2268 12.0345 11.8712C12.1298 11.5155 12.4954 11.3045 12.851 11.3998L15.4268 12.0899L15.8409 10.5445L13.2651 9.85428C12.9095 9.75898 12.6984 9.39343 12.7937 9.03778C12.889 8.68214 13.2546 8.47108 13.6102 8.56638L16.186 9.25656L16.6001 7.71108L14.0243 7.0209C13.6687 6.9256 13.4576 6.56004 13.5529 6.2044C13.6482 5.84875 14.0138 5.6377 14.3694 5.73299L16.9452 6.42318L17.4629 4.49133C17.8185 4.58662 18.1841 4.37557 18.2793 4.01992C18.3746 3.66428 18.1636 3.29872 17.8079 3.20343L11.3684 1.47797Z" fill="white"/>
</svg>
