<svg width="20" height="20" viewBox="0 0 20 20" fill="none" xmlns="http://www.w3.org/2000/svg">
<path d="M10.1 3H9.9C8.79543 3 7.9 3.89543 7.9 5V7.91378C7.9 8.35854 7.75176 8.7906 7.4787 9.14166L3.32936 14.4765C3.11589 14.751 3 15.0888 3 15.4365C3 16.3 3.70002 17 4.56354 17H15.4365C16.3 17 17 16.3 17 15.4365C17 15.0888 16.8841 14.751 16.6706 14.4765L12.5213 9.14167C12.2482 8.7906 12.1 8.35854 12.1 7.91379V5C12.1 3.89543 11.2046 3 10.1 3Z" stroke="#A2A2A2" stroke-width="1.5"/>
<rect x="6.375" y="2.375" width="7.25" height="0.75" rx="0.375" stroke="#A2A2A2" stroke-width="0.75"/>
</svg>
