<svg width="24" height="24" viewBox="0 0 24 24" fill="none" xmlns="http://www.w3.org/2000/svg">
<circle cx="12" cy="9" r="3" fill="#191919" stroke="#191919" stroke-width="2"/>
<path d="M12 15C8.48797 15 5.74684 16.9272 5.13031 18.4127C4.97895 18.7774 5.11606 19.1775 5.38691 19.4648C6.18108 20.3072 8.24416 22 12 22C15.7558 22 17.8189 20.3072 18.6131 19.4648C18.8839 19.1775 19.021 18.7774 18.8697 18.4127C18.2532 16.9272 15.512 15 12 15Z" fill="#191919" stroke="#191919" stroke-width="2"/>
<path fill-rule="evenodd" clip-rule="evenodd" d="M12 22C17.5228 22 22 17.5228 22 12C22 6.47715 17.5228 2 12 2C6.47715 2 2 6.47715 2 12C2 17.5228 6.47715 22 12 22Z" stroke="#191919" stroke-width="2"/>
</svg>
