<svg width="12" height="12" viewBox="0 0 12 12" fill="none" xmlns="http://www.w3.org/2000/svg">
<path d="M2.06519 2.06519C2.15212 1.97827 2.29305 1.97827 2.37998 2.06519L6 5.68522L9.62002 2.06519C9.70695 1.97827 9.84788 1.97827 9.93481 2.06519C10.0217 2.15212 10.0217 2.29305 9.93481 2.37998L6.31478 6L9.93481 9.62002C10.0217 9.70695 10.0217 9.84788 9.93481 9.93481C9.84788 10.0217 9.70695 10.0217 9.62002 9.93481L6 6.31478L2.37998 9.93481C2.29305 10.0217 2.15212 10.0217 2.06519 9.93481C1.97827 9.84788 1.97827 9.70695 2.06519 9.62002L5.68522 6L2.06519 2.37998C1.97827 2.29305 1.97827 2.15212 2.06519 2.06519Z" stroke="#696969"/>
</svg>
