<svg width="20" height="20" viewBox="0 0 20 20" fill="none" xmlns="http://www.w3.org/2000/svg">
<g clip-path="url(#clip0_341_2320)">
<path d="M14.05 2C12.484 2 10.981 2.70627 10 3.82234C9.019 2.70627 7.516 2 5.95 2C3.178 2 1 4.11008 1 6.79564C1 10.0916 4.06 12.7771 8.695 16.8578L10 18L11.305 16.849C15.94 12.7771 19 10.0916 19 6.79564C19 4.11008 16.822 2 14.05 2ZM10.09 15.5586L10 15.6458L9.91 15.5586C5.626 11.8005 2.8 9.31553 2.8 6.79564C2.8 5.05177 4.15 3.74387 5.95 3.74387C7.336 3.74387 8.686 4.60708 9.163 5.80164H10.846C11.314 4.60708 12.664 3.74387 14.05 3.74387C15.85 3.74387 17.2 5.05177 17.2 6.79564C17.2 9.31553 14.374 11.8005 10.09 15.5586Z" fill="#767676"/>
</g>
<defs>
<clipPath id="clip0_341_2320">
<rect width="20" height="20" fill="white"/>
</clipPath>
</defs>
</svg>
