<svg width="24" height="24" viewBox="0 0 24 24" fill="none" xmlns="http://www.w3.org/2000/svg">
<path d="M19 3H5C3.89543 3 3 3.89543 3 5V16C3 17.1046 3.89543 18 5 18H7.17157C7.70201 18 8.21071 18.2107 8.58579 18.5858L10.5858 20.5858C11.3668 21.3668 12.6332 21.3668 13.4142 20.5858L15.4142 18.5858C15.7893 18.2107 16.298 18 16.8284 18H19C20.1046 18 21 17.1046 21 16V5C21 3.89543 20.1046 3 19 3Z" stroke="#A2A2A2" stroke-width="2"/>
<path d="M6 13C6 12.4477 6.44772 12 7 12H13C13.5523 12 14 12.4477 14 13C14 13.5523 13.5523 14 13 14H7C6.44772 14 6 13.5523 6 13Z" fill="#A2A2A2"/>
<path d="M6 8C6 7.44772 6.44772 7 7 7H17C17.5523 7 18 7.44772 18 8C18 8.55228 17.5523 9 17 9H7C6.44772 9 6 8.55228 6 8Z" fill="#A2A2A2"/>
</svg>
