<svg width="24" height="24" viewBox="0 0 24 24" fill="none" xmlns="http://www.w3.org/2000/svg">
<path d="M12.7 3H11.3C10.1954 3 9.3 3.89543 9.3 5V9.51378C9.3 9.95854 9.15176 10.3906 8.8787 10.7417L3.4213 17.7583C3.14824 18.1094 3 18.545 3 18.9897C3 20.0943 3.89543 21 5 21H19C20.1046 21 21 20.0943 21 18.9897C21 18.545 20.8518 18.1094 20.5787 17.7583L15.1213 10.7417C14.8482 10.3906 14.7 9.95854 14.7 9.51378V5C14.7 3.89543 13.8046 3 12.7 3Z" stroke="#A2A2A2" stroke-width="1.5"/>
<rect x="6.5" y="2.5" width="11" height="1" rx="0.5" stroke="#A2A2A2"/>
</svg>
