<svg width="20" height="20" viewBox="0 0 20 20" fill="none" xmlns="http://www.w3.org/2000/svg">
<path fill-rule="evenodd" clip-rule="evenodd" d="M13.9814 4.60441C10.1124 3.3985 5.782 3.9971 2.37103 6.4002C1.88985 6.7392 1.86513 7.42729 2.28613 7.83865C2.64831 8.19253 3.21608 8.21362 3.63296 7.92619C6.21571 6.14547 9.40439 5.57312 12.3766 6.20915L13.9814 4.60441ZM14.517 6.8972L15.9948 5.4194C16.5579 5.70364 17.1043 6.03057 17.629 6.40019C18.1101 6.73919 18.1349 7.42729 17.7139 7.83864C17.3517 8.19252 16.7839 8.21361 16.367 7.92619C15.7786 7.52046 15.1586 7.17747 14.517 6.8972ZM9.70031 8.88548C8.16186 8.93439 6.63373 9.36356 5.27617 10.173C4.75653 10.4828 4.72139 11.1971 5.15411 11.6199C5.5039 11.9617 6.04827 11.9951 6.47457 11.7555C6.7025 11.6273 6.93619 11.5126 7.17442 11.4114L9.70031 8.88548ZM10.5541 10.8602L12.2558 9.15838C13.1124 9.3726 13.9432 9.7108 14.7183 10.173C15.238 10.4828 15.2731 11.1971 14.8404 11.6199C14.4906 11.9617 13.9462 11.9951 13.5199 11.7555C12.5987 11.2376 11.5835 10.9392 10.5541 10.8602ZM9.29078 15.7747C8.88334 15.8667 8.43691 15.8064 8.13816 15.5145L8.06456 15.4426C7.60545 14.994 7.68603 14.2295 8.29321 14.0213C9.39657 13.6431 10.6055 13.6431 11.7089 14.0213C12.316 14.2295 12.3966 14.994 11.9375 15.4426L11.8639 15.5145C11.5652 15.8064 11.1187 15.8667 10.7113 15.7747C10.2444 15.6694 9.75766 15.6694 9.29078 15.7747Z" fill="current"/>
<rect x="16.0104" y="3.63604" width="0.5" height="17.5" rx="0.25" transform="rotate(45 16.0104 3.63604)" stroke="#191919" stroke-width="0.5" stroke-linejoin="round"/>
</svg>
