<svg width="20" height="20" viewBox="0 0 20 20" fill="none" xmlns="http://www.w3.org/2000/svg">
<path d="M2.28614 7.83865C2.64832 8.19253 3.21609 8.21362 3.63297 7.92619C7.43904 5.30203 12.561 5.30203 16.367 7.92619C16.7839 8.21361 17.3517 8.19252 17.7139 7.83864C18.1349 7.42729 18.1101 6.73919 17.629 6.40019C13.0865 3.19993 6.91349 3.19994 2.37104 6.4002C1.88986 6.7392 1.86513 7.42729 2.28614 7.83865Z" fill="current"/>
<path d="M5.15412 11.6199C5.50391 11.9617 6.04828 11.9951 6.47457 11.7555C8.64865 10.5333 11.3459 10.5333 13.5199 11.7555C13.9462 11.9951 14.4906 11.9617 14.8404 11.6199C15.2731 11.1971 15.238 10.4828 14.7183 10.173C11.8286 8.45002 8.16593 8.45002 5.27618 10.173C4.75653 10.4828 4.72139 11.1971 5.15412 11.6199Z" fill="current"/>
<path d="M8.13816 15.5145C8.43692 15.8064 8.88335 15.8667 9.29078 15.7747C9.75767 15.6694 10.2444 15.6694 10.7113 15.7747C11.1187 15.8667 11.5652 15.8064 11.8639 15.5145L11.9375 15.4426C12.3966 14.994 12.316 14.2295 11.7089 14.0213C10.6055 13.6431 9.39658 13.6431 8.29322 14.0213C7.68604 14.2295 7.60546 14.994 8.06456 15.4426L8.13816 15.5145Z" fill="current"/>
</svg>
